<?xml version="1.0" encoding="UTF-8" standalone="no"?>
<!DOCTYPE svg PUBLIC "-//W3C//DTD SVG 1.1//EN" "http://www.w3.org/Graphics/SVG/1.1/DTD/svg11.dtd">
<!-- Created with Vectornator (http://vectornator.io/) -->
<svg height="100%" stroke-miterlimit="10" style="fill-rule:nonzero;clip-rule:evenodd;stroke-linecap:round;stroke-linejoin:round;" version="1.1" viewBox="0 0 100 100" width="100%" xml:space="preserve" xmlns="http://www.w3.org/2000/svg" xmlns:vectornator="http://vectornator.io" xmlns:xlink="http://www.w3.org/1999/xlink">
<defs/>
<g id="Untitled" vectornator:layerName="Untitled">
<g opacity="1" vectornator:layerName="g">
<path d="M48.406 50.617C47.2654 51.3514 45.906 51.7811 44.449 51.7811C40.406 51.7811 37.1209 48.492 37.1209 44.453C37.1209 40.41 40.41 37.1249 44.449 37.1249C48.492 37.1249 51.7771 40.414 51.7771 44.453C51.7771 45.91 51.3474 47.2655 50.613 48.41L54.7653 52.5623C55.8395 51.1951 56.6364 49.617 57.1051 47.8904C58.9996 40.9099 54.8629 33.6914 47.8824 31.7964C46.7379 31.4878 45.5777 31.3316 44.4254 31.3316C42.1676 31.3316 39.9371 31.9214 37.9254 33.0738C34.8863 34.816 32.7066 37.6363 31.7887 41.0191C29.8942 47.9996 34.0309 55.2181 41.0114 57.1131C44.3942 58.031 47.9294 57.5779 50.9684 55.8358C51.527 55.5155 52.0543 55.16 52.5504 54.7694L48.406 50.617Z" fill="#3facaf" fill-rule="nonzero" opacity="1" stroke="none" vectornator:layerName="path"/>
<path d="M43.348 45.555C42.7386 44.9456 42.7386 43.9573 43.348 43.3441C43.9574 42.7347 44.9457 42.7347 45.5589 43.3441L48.3167 46.1019C48.5355 45.5941 48.6565 45.0355 48.6565 44.4457C48.6565 42.1254 46.7698 40.2426 44.4534 40.2426C42.1331 40.2426 40.2503 42.1293 40.2503 44.4457C40.2503 46.766 42.137 48.6488 44.4534 48.6488C45.0394 48.6488 45.6018 48.5277 46.1096 48.309L43.348 45.555Z" fill="#3facaf" fill-rule="nonzero" opacity="1" stroke="none" vectornator:layerName="path"/>
<path d="M54.777 56.984C54.0778 57.5582 53.3278 58.0817 52.527 58.5387C50.0348 59.9645 47.2731 60.6949 44.4801 60.6949C43.0504 60.6949 41.6168 60.5035 40.1989 60.1207C31.5583 57.7769 26.4329 48.8357 28.7809 40.1907C29.9176 36.0032 32.6168 32.511 36.3786 30.3548C40.1442 28.1986 44.5192 27.636 48.7066 28.7728C57.3472 31.1166 62.4726 40.0578 60.1246 48.7028C59.5113 50.9645 58.4371 53.0231 56.9879 54.777L64.4879 62.277C68.316 57.984 70.8043 52.4372 71.2223 46.265C71.7067 39.1127 69.3785 32.203 64.6637 26.8C59.9489 21.4016 53.4177 18.1594 46.2657 17.675C45.6524 17.632 45.0391 17.6125 44.4298 17.6125C30.4528 17.6125 18.6368 28.4835 17.6758 42.6325C17.1914 49.7848 19.5196 56.6945 24.2344 62.0975C28.9492 67.4959 35.4804 70.7381 42.6324 71.2225C50.1051 71.7264 57.0774 69.1092 62.2774 64.4842L54.777 56.984Z" fill="#3facaf" fill-rule="nonzero" opacity="1" stroke="none" vectornator:layerName="path"/>
<path d="M64.492 66.699C59.1522 71.5076 52.101 74.4099 44.472 74.4099C43.7923 74.4099 43.1087 74.3865 42.4251 74.3396C34.4407 73.7966 27.1441 70.1794 21.8821 64.1516C16.6204 58.1243 14.0188 50.4056 14.5618 42.4216C15.679 25.9416 29.9998 13.4416 46.4798 14.5586C54.4642 15.1016 61.7608 18.7188 67.0228 24.7466C72.2845 30.7739 74.8861 38.4926 74.3431 46.4766C73.8704 53.4336 71.0462 59.6756 66.7025 64.4886L76.6908 74.4769C84.3236 66.2972 88.5108 55.6959 88.5108 44.4499C88.5108 32.6799 83.9288 21.6179 75.6048 13.2939C67.2845 4.97359 56.2178 0.391888 44.4488 0.391888C32.6828 0.391888 21.6168 4.97389 13.2968 13.2979C4.9726 21.6182 0.3908 32.6849 0.3908 44.4499C0.3908 56.2199 4.9728 67.2819 13.2968 75.6059C21.6171 83.9262 32.6838 88.5119 44.4528 88.5119C55.6988 88.5119 66.3008 84.3244 74.4798 76.6919L64.492 66.699Z" fill="#3facaf" fill-rule="nonzero" opacity="1" stroke="none" vectornator:layerName="path"/>
<path d="M99.137 87.574C96.969 84.2537 92.7932 78.3904 89.1995 76.422C86.4104 74.8947 82.2151 73.9415 78.0785 78.0782C73.9419 82.2149 74.8949 86.4102 76.4223 89.1992C78.3911 92.7969 84.2543 96.9687 87.5743 99.1367C88.0509 99.4492 88.5977 99.6094 89.1524 99.6094C89.5469 99.6094 89.9454 99.5273 90.3204 99.3633C91.211 98.9687 91.8399 98.1641 92.004 97.2071L92.4845 94.6915L93.4259 95.6329C93.7306 95.9376 94.129 96.0899 94.5314 96.0899C94.9298 96.0899 95.3322 95.9376 95.6369 95.6329C96.2463 95.0235 96.2463 94.0352 95.6369 93.422L94.6955 92.4806L97.2111 92.0001C98.1681 91.836 98.9728 91.2071 99.3673 90.3165C99.7579 89.4181 99.6759 88.3946 99.1368 87.5743L99.137 87.574ZM90.3948 91.9568C89.9964 91.9568 89.594 91.8045 89.2893 91.4998L85.5041 87.7146L84.383 92.1677C84.2033 92.8747 83.5666 93.3474 82.8674 93.3474C82.7424 93.3474 82.6135 93.3317 82.4846 93.3005C81.6486 93.0896 81.1408 92.2419 81.3518 91.4021L82.9299 85.1365L79.1838 81.3904C78.5744 80.781 78.5744 79.7927 79.1838 79.1795C79.7932 78.5701 80.7815 78.5701 81.3947 79.1795L85.1408 82.9256L91.4064 81.3475C92.2423 81.1366 93.0939 81.6444 93.3048 82.4803C93.5157 83.3162 93.0079 84.1678 92.172 84.3787L87.7189 85.4998L91.5041 89.285C92.1135 89.8944 92.1135 90.8827 91.5041 91.4959C91.1955 91.8045 90.7931 91.9568 90.3947 91.9568L90.3948 91.9568Z" fill="#3facaf" fill-rule="nonzero" opacity="1" stroke="none" vectornator:layerName="path"/>
</g>
</g>
</svg>
